<?xml version="1.0" encoding="UTF-8" standalone="no"?>
<svg
   xmlns:dc="http://purl.org/dc/elements/1.1/"
   xmlns:cc="http://creativecommons.org/ns#"
   xmlns:rdf="http://www.w3.org/1999/02/22-rdf-syntax-ns#"
   xmlns:svg="http://www.w3.org/2000/svg"
   xmlns="http://www.w3.org/2000/svg"
   viewBox="0 0 380.64001 84.120003"
   height="84.120003"
   width="380.64001"
   xml:space="preserve"
   id="svg2"
   version="1.1"><metadata
     id="metadata8"><rdf:RDF><cc:Work
         rdf:about=""><dc:format>image/svg+xml</dc:format><dc:type
           rdf:resource="http://purl.org/dc/dcmitype/StillImage" /></cc:Work></rdf:RDF></metadata><defs
     id="defs6" /><g
     transform="matrix(1.3333333,0,0,-1.3333333,0,84.12)"
     id="g10"><g
       transform="scale(0.1)"
       id="g12"><path
         id="path14"
         style="fill:#2d71bb;fill-opacity:1;fill-rule:nonzero;stroke:none"
         d="M 322.566,457.957 H 39.9219 C 17.9648,457.957 0,439.992 0,418.035 0,396.074 17.9648,378.109 39.9219,378.109 H 141.527 V 39.9219 C 141.527,17.9648 159.492,0 181.449,0 c 21.957,0 39.922,17.9648 39.922,39.9219 V 378.109 h 101.195 c 21.957,0 39.922,17.965 39.922,39.926 0,21.957 -17.965,39.922 -39.922,39.922" /><path
         id="path16"
         style="fill:#2d71bb;fill-opacity:1;fill-rule:nonzero;stroke:none"
         d="M 964.77,79.8477 H 863.34 V 403.551 c 0,21.957 -17.965,39.922 -39.922,39.922 -21.957,0 -39.922,-17.965 -39.922,-39.922 V 39.9219 C 783.496,17.9648 801.461,0 823.418,0 H 964.77 c 21.957,0 39.92,17.9648 39.92,39.9219 0,21.9609 -17.963,39.9258 -39.92,39.9258" /><path
         id="path18"
         style="fill:#2d71bb;fill-opacity:1;fill-rule:nonzero;stroke:none"
         d="m 710.59,142.457 c -14.738,2.723 -28.297,-2.492 -37.41,-12.004 l -0.258,0.25 C 646.129,99.7266 607.102,79.7031 563.176,79.7031 c -97.66,0 -171.68,98.4379 -138.879,197.9729 15.82,48.008 55.93,85.539 105.141,97.097 29.406,6.907 57.292,4.43 82.109,-4.574 7.543,-2.734 9.621,-12.496 3.945,-18.168 L 508.648,245.203 c -15.863,-15.859 -19.687,-41 -7.41,-59.773 16.867,-25.789 52.215,-28.387 72.805,-7.797 l 163.27,163.269 c 10.546,10.547 10.679,27.606 0.3,38.317 v 0 c -14.683,17.008 -31.996,31.59 -51.187,43.551 l -0.067,0.117 -0.043,-0.043 c -35.386,22.031 -77.433,34.785 -123.14,34.785 -128.422,0 -229.324,-99.07 -229.324,-228.406 0,-129.3363 100.902,-228.4105 229.324,-228.4105 67.414,0 127.043,27.4883 168.676,72.1367 0.019,0.0196 0.043,0.0391 0.062,0.0625 0.051,0.0508 0.106,0.0938 0.152,0.1446 l -0.015,0.0156 c 9.058,9.1719 13.863,22.5508 11.109,36.9691 -3.086,16.168 -16.383,29.328 -32.57,32.316" /><path
         id="path20"
         style="fill:#2d71bb;fill-opacity:1;fill-rule:nonzero;stroke:none"
         d="m 1346.18,142.457 c -14.75,2.723 -28.3,-2.492 -37.42,-12.004 l -0.25,0.25 c -26.8,-30.9764 -65.82,-50.9999 -109.75,-50.9999 -97.66,0 -171.68,98.4379 -138.88,197.9729 15.82,48.008 55.93,85.539 105.14,97.097 29.41,6.907 57.3,4.43 82.11,-4.574 7.54,-2.734 9.62,-12.496 3.95,-18.168 L 1144.23,245.203 c -15.86,-15.859 -19.68,-41 -7.41,-59.773 16.87,-25.789 52.22,-28.387 72.81,-7.797 l 163.27,163.269 c 10.54,10.547 10.68,27.606 0.3,38.317 v 0 c -14.68,17.008 -32,31.59 -51.19,43.551 l -0.07,0.117 -0.04,-0.043 c -35.38,22.031 -77.43,34.785 -123.14,34.785 -128.42,0 -229.322,-99.07 -229.322,-228.406 0,-129.3363 100.902,-228.4105 229.322,-228.4105 67.41,0 127.04,27.4883 168.67,72.1367 0.03,0.0196 0.05,0.0391 0.07,0.0625 0.05,0.0508 0.1,0.0938 0.15,0.1446 l -0.02,0.0156 c 9.06,9.1719 13.87,22.5508 11.12,36.9691 -3.09,16.168 -16.39,29.328 -32.57,32.316" /><path
         id="path22"
         style="fill:#76c633;fill-opacity:1;fill-rule:nonzero;stroke:none"
         d="m 1996.46,231.063 c 0,-80.766 65.16,-149.6021 146.85,-149.6021 81.69,0 146.85,68.8361 146.85,149.6021 0,81.683 -65.16,149.605 -146.85,149.605 -81.69,0 -146.85,-67.922 -146.85,-149.605 z m 376.31,0 c 0,-129.411 -100.96,-228.53956 -229.46,-228.53956 -128.49,0 -229.45,99.12856 -229.45,228.53956 0,129.41 100.96,228.539 229.45,228.539 128.5,0 229.46,-99.129 229.46,-228.539" /><path
         id="path24"
         style="fill:#76c633;fill-opacity:1;fill-rule:nonzero;stroke:none"
         d="m 2813.11,192.504 c -17.08,0 -31.72,-10.32 -38.11,-25.051 l -0.01,0.008 c -0.02,-0.066 -0.06,-0.121 -0.09,-0.184 -0.03,-0.078 -0.07,-0.144 -0.1,-0.218 -19.27,-51.739 -73.73,-85.5981 -132.45,-85.5981 -81.69,0 -146.85,68.8361 -146.85,149.6021 0,81.683 65.16,149.605 146.85,149.605 59.2,0 109.18,-35.93 132.77,-86.551 6.24,-14.984 21,-25.527 38.24,-25.527 22.89,0 41.44,18.551 41.44,41.433 0,6.145 -1.42,11.93 -3.82,17.176 l 0.01,0.008 c -36.39,78.953 -114.63,132.395 -208.64,132.395 -128.49,0 -229.45,-99.125 -229.45,-228.539 0,-129.411 100.96,-228.53566 229.45,-228.53566 93.8,0 174.3,52.29686 208.76,131.72666 2.25,5.117 3.55,10.746 3.55,16.699 0,22.945 -18.61,41.551 -41.55,41.551" /><path
         id="path26"
         style="fill:#76c633;fill-opacity:1;fill-rule:nonzero;stroke:none"
         d="m 1903.3,601.602 c -16.71,4.3 -40.02,7.128 -59.37,-4.418 -13.58,-8.102 -20.28,-24.196 -17.33,-39.739 l 31.09,-163.761 c 1.27,-6.692 10.86,-6.7 12.13,-0.008 l 39.43,206.445 c 0,0 -5.55,1.379 -5.95,1.481" /><path
         id="path28"
         style="fill:#76c633;fill-opacity:1;fill-rule:nonzero;stroke:none"
         d="m 1999.4,521.672 c -13.41,9.297 -32.79,19.394 -53.58,17.004 -15.54,-1.789 -27.83,-14.098 -31.21,-29.371 l -41.29,-186.45 c -1.42,-6.429 7.26,-9.902 10.66,-4.261 l 120.48,199.629 c 0,0 -4.73,3.218 -5.06,3.449" /><path
         id="path30"
         style="fill:#76c633;fill-opacity:1;fill-rule:nonzero;stroke:none"
         d="m 1860.4,264.355 -0.84,4.399 c -0.83,5.246 -1.78,10.43 -2.95,15.535 l -65.81,346.66 c 0,0 -5.67,-0.758 -6.07,-0.808 -29.13,-3.645 -74.45,-18.211 -64.33,-83.758 0.12,-0.774 2.68,-13.797 2.83,-14.567 l 18.15,-98.171 c -32.06,16.589 -68.74,25.957 -108.06,25.957 -94.01,0 -172.25,-53.442 -208.64,-132.395 l 0.02,-0.008 c -2.41,-5.246 -3.83,-11.031 -3.83,-17.176 0,-22.882 18.55,-41.433 41.43,-41.433 17.25,0 32.01,10.543 38.25,25.527 23.59,50.621 73.57,86.551 132.77,86.551 81.69,0 146.85,-67.922 146.85,-149.605 0,-80.766 -65.16,-149.6021 -146.85,-149.6021 -58.72,0 -113.18,33.8591 -132.45,85.5981 -0.03,0.074 -0.07,0.144 -0.11,0.218 -0.02,0.063 -0.06,0.118 -0.08,0.184 l -0.01,-0.008 c -6.39,14.731 -21.03,25.051 -38.11,25.051 -22.94,0 -41.55,-18.606 -41.55,-41.551 0,-5.949 1.3,-11.582 3.55,-16.699 34.46,-79.4298 114.96,-131.72666 208.76,-131.72666 128.49,0 229.45,99.12466 229.45,228.53566 0,11.433 -1.05,22.531 -2.58,33.441 0.05,-0.035 0.21,-0.149 0.21,-0.149" /></g></g></svg>